<svg width="292" height="44" viewBox="0 0 292 44" fill="none" xmlns="http://www.w3.org/2000/svg">
<path d="M51.0032 7.19499L40.6982 38.695H32.8682L25.9382 17.365L18.7832 38.695H10.9982L0.648193 7.19499H8.20819L15.3182 29.335L22.7432 7.19499H29.4932L36.6932 29.515L44.0282 7.19499H51.0032Z" fill="white"/>
<path d="M74.7632 31.945H60.1382L57.3482 38.695H49.8782L63.9182 7.19499H71.1182L85.2032 38.695H77.5532L74.7632 31.945ZM72.4682 26.41L67.4732 14.35L62.4782 26.41H72.4682Z" fill="white"/>
<path d="M93.4143 13.135H83.3343V7.19499H110.784V13.135H100.704V38.695H93.4143V13.135Z" fill="white"/>
<path d="M129.342 39.235C126.132 39.235 123.222 38.545 120.612 37.165C118.032 35.755 115.992 33.82 114.492 31.36C113.022 28.87 112.287 26.065 112.287 22.945C112.287 19.825 113.022 17.035 114.492 14.575C115.992 12.085 118.032 10.15 120.612 8.76999C123.222 7.35999 126.147 6.65499 129.387 6.65499C132.117 6.65499 134.577 7.135 136.767 8.095C138.987 9.055 140.847 10.435 142.347 12.235L137.667 16.555C135.537 14.095 132.897 12.865 129.747 12.865C127.797 12.865 126.057 13.3 124.527 14.17C122.997 15.01 121.797 16.195 120.927 17.725C120.087 19.255 119.667 20.995 119.667 22.945C119.667 24.895 120.087 26.635 120.927 28.165C121.797 29.695 122.997 30.895 124.527 31.765C126.057 32.605 127.797 33.025 129.747 33.025C132.897 33.025 135.537 31.78 137.667 29.29L142.347 33.61C140.847 35.44 138.987 36.835 136.767 37.795C134.547 38.755 132.072 39.235 129.342 39.235Z" fill="white"/>
<path d="M176.16 7.19499V38.695H168.87V25.78H154.56V38.695H147.27V7.19499H154.56V19.615H168.87V7.19499H176.16Z" fill="white"/>
<path d="M193.243 0.804993H199.498L184.648 43.195H178.393L193.243 0.804993Z" fill="white"/>
<path d="M201.235 7.19499H208.525V32.755H224.32V38.695H201.235V7.19499Z" fill="white"/>
<path d="M249.402 31.945H234.777L231.987 38.695H224.517L238.557 7.19499H245.757L259.842 38.695H252.192L249.402 31.945ZM247.107 26.41L242.112 14.35L237.117 26.41H247.107Z" fill="white"/>
<path d="M286.24 22.315C288.04 22.885 289.45 23.845 290.47 25.195C291.49 26.515 292 28.15 292 30.1C292 32.86 290.92 34.99 288.76 36.49C286.63 37.96 283.51 38.695 279.4 38.695H263.11V7.19499H278.5C282.34 7.19499 285.28 7.92999 287.32 9.39999C289.39 10.87 290.425 12.865 290.425 15.385C290.425 16.915 290.05 18.28 289.3 19.48C288.58 20.68 287.56 21.625 286.24 22.315ZM270.355 12.685V20.11H277.6C279.4 20.11 280.765 19.795 281.695 19.165C282.625 18.535 283.09 17.605 283.09 16.375C283.09 15.145 282.625 14.23 281.695 13.63C280.765 13 279.4 12.685 277.6 12.685H270.355ZM278.86 33.205C280.78 33.205 282.22 32.89 283.18 32.26C284.17 31.63 284.665 30.655 284.665 29.335C284.665 26.725 282.73 25.42 278.86 25.42H270.355V33.205H278.86Z" fill="white"/>
</svg>
